<svg width="1022" height="389" viewBox="0 0 1022 389" fill="none" xmlns="http://www.w3.org/2000/svg">
<path d="M7 388L20.72 344.11H27.23L40.25 388H35.84L32.55 376.8H15.19L11.76 388H7ZM16.24 373.65H31.43L24.01 347.89L16.24 373.65Z" fill="white"/>
<path d="M78.9124 388.84C77.0924 385.9 75.1324 382.493 73.0324 378.62C70.9324 374.746 69.2524 371.34 67.9924 368.4C66.3124 368.54 64.4458 368.61 62.3924 368.61H58.6124V388H54.2724V344.11H62.8824C67.1758 344.11 70.5358 344.413 72.9624 345.02C75.4358 345.626 77.3024 346.816 78.5624 348.59C79.8691 350.363 80.5224 353 80.5224 356.5C80.5224 359.813 79.8224 362.356 78.4224 364.13C77.0691 365.903 74.9458 367.116 72.0524 367.77L82.4824 386.53L78.9124 388.84ZM61.6224 365.39C65.5424 365.39 68.5058 365.18 70.5124 364.76C72.5191 364.34 73.9424 363.523 74.7824 362.31C75.6691 361.05 76.1124 359.136 76.1124 356.57C76.1124 353.863 75.6224 351.88 74.6424 350.62C73.7091 349.313 72.3324 348.473 70.5124 348.1C68.6924 347.726 66.0791 347.54 62.6724 347.54H58.6124V365.39H61.6224Z" fill="white"/>
<path d="M112.069 388.35C108.103 388.35 104.929 387.556 102.549 385.97C100.169 384.336 98.4661 381.886 97.4395 378.62C96.4128 375.353 95.8995 371.083 95.8995 365.81C95.8995 357.923 97.2761 352.253 100.029 348.8C102.829 345.3 107.006 343.55 112.559 343.55C116.619 343.55 120.399 344.39 123.899 346.07V354.4H120.119V348.45C119.279 348.076 118.183 347.773 116.829 347.54C115.523 347.306 114.239 347.19 112.979 347.19C110.179 347.19 107.846 347.68 105.979 348.66C104.159 349.64 102.736 351.483 101.709 354.19C100.683 356.85 100.169 360.606 100.169 365.46C100.169 370.126 100.543 373.86 101.289 376.66C102.036 379.413 103.273 381.443 104.999 382.75C106.773 384.056 109.199 384.71 112.279 384.71C113.866 384.71 115.429 384.57 116.969 384.29C118.556 384.01 119.933 383.59 121.099 383.03V368.61H113.049V365.25H125.089V384.85C123.316 385.83 121.426 386.67 119.419 387.37C117.413 388.023 114.963 388.35 112.069 388.35Z" fill="white"/>
<path d="M141.622 388V344.11H165.002L164.232 347.54H145.962V363.29H163.112V366.58H145.962V384.57H164.582L165.142 388H141.622Z" fill="white"/>
<path d="M180.136 388V344.11H184.756L206.736 380.51V344.11H210.726V388H206.386L184.266 351.04V388H180.136Z" fill="white"/>
<path d="M235.786 388V347.54H224.026V344.11H252.096V347.54H240.196V388H235.786Z" fill="white"/>
<path d="M264.036 388V384.57H270.616V347.54H264.036V344.11H281.326V347.54H275.026V384.57H281.466V388H264.036Z" fill="white"/>
<path d="M297.317 388V344.11H301.937L323.917 380.51V344.11H327.907V388H323.567L301.447 351.04V388H297.317Z" fill="white"/>
<path d="M345.128 388V344.11H368.508L367.738 347.54H349.468V363.29H366.618V366.58H349.468V384.57H368.088L368.648 388H345.128Z" fill="white"/>
<path d="M424.669 388.35C419.535 388.35 415.359 387.463 412.139 385.69L413.119 382.12C414.985 382.913 416.759 383.543 418.439 384.01C420.165 384.476 422.242 384.71 424.669 384.71C427.609 384.71 429.895 383.986 431.529 382.54C433.209 381.093 434.049 378.876 434.049 375.89C434.049 374.163 433.745 372.81 433.139 371.83C432.532 370.803 431.669 369.986 430.549 369.38C429.429 368.773 427.795 368.12 425.649 367.42L421.449 366.02C418.369 364.946 416.035 363.57 414.449 361.89C412.909 360.163 412.139 357.83 412.139 354.89C412.139 350.97 413.375 348.1 415.849 346.28C418.322 344.46 421.565 343.55 425.579 343.55C430.059 343.55 433.979 344.25 437.339 345.65L436.569 349.15C434.935 348.543 433.279 348.076 431.599 347.75C429.965 347.376 428.145 347.19 426.139 347.19C419.745 347.19 416.549 349.71 416.549 354.75C416.549 356.663 416.969 358.133 417.809 359.16C418.649 360.14 420.329 361.073 422.849 361.96L426.699 363.36C429.592 364.386 431.715 365.25 433.069 365.95C434.469 366.65 435.705 367.793 436.779 369.38C437.852 370.966 438.389 373.16 438.389 375.96C438.389 379.926 437.152 382.983 434.679 385.13C432.205 387.276 428.869 388.35 424.669 388.35Z" fill="white"/>
<path d="M460.853 388V347.54H449.093V344.11H477.163V347.54H465.263V388H460.853Z" fill="white"/>
<path d="M498.973 388V367.98L485.813 344.11H490.713L501.143 363.92L511.503 344.11H516.473L503.313 367.91V388H498.973Z" fill="white"/>
<path d="M529.083 388V344.11H533.423V384.57H550.223L550.853 388H529.083Z" fill="white"/>
<path d="M564.315 388V344.11H587.695L586.925 347.54H568.655V363.29H585.805V366.58H568.655V384.57H587.275L587.835 388H564.315Z" fill="white"/>
<path d="M632.866 388V344.11H656.246L655.476 347.54H637.206V363.29H654.356V366.58H637.206V384.57H655.826L656.386 388H632.866Z" fill="white"/>
<path d="M670.96 388L674.39 344.11H679.22L689.58 368.12L699.59 344.11H704.42L708.13 388H704.14L700.85 350.41L691.54 373.02H687.62L677.96 350.34L675.02 388H670.96Z" fill="white"/>
<path d="M724.933 344.11H736.833C741.593 344.11 745.163 345.066 747.543 346.98C749.969 348.893 751.183 352.253 751.183 357.06C751.183 360.466 750.506 363.08 749.153 364.9C747.799 366.72 745.816 367.98 743.203 368.68C740.636 369.333 737.229 369.66 732.983 369.66H729.273V388H724.933V344.11ZM732.143 366.09C736.063 366.09 738.979 365.95 740.893 365.67C742.806 365.343 744.253 364.55 745.233 363.29C746.259 361.983 746.773 359.93 746.773 357.13C746.773 353.49 746.003 350.993 744.463 349.64C742.969 348.24 740.519 347.54 737.113 347.54H729.273V366.09H732.143Z" fill="white"/>
<path d="M762.139 388L775.859 344.11H782.369L795.389 388H790.979L787.689 376.8H770.329L766.899 388H762.139ZM771.379 373.65H786.569L779.149 347.89L771.379 373.65Z" fill="white"/>
<path d="M809.411 388V344.11H814.031L836.011 380.51V344.11H840.001V388H835.661L813.541 351.04V388H809.411Z" fill="white"/>
<path d="M853.932 388L867.652 344.11H874.162L887.182 388H882.772L879.482 376.8H862.122L858.692 388H853.932ZM863.172 373.65H878.362L870.942 347.89L863.172 373.65Z" fill="white"/>
<path d="M901.204 344.11H910.514C915.647 344.11 919.591 344.856 922.344 346.35C925.097 347.796 926.987 350.083 928.014 353.21C929.087 356.336 929.624 360.676 929.624 366.23C929.624 371.363 929.157 375.47 928.224 378.55C927.291 381.583 925.471 383.916 922.764 385.55C920.057 387.183 916.091 388 910.864 388H901.204V344.11ZM910.864 384.57C915.157 384.57 918.331 383.94 920.384 382.68C922.437 381.42 923.767 379.553 924.374 377.08C924.981 374.56 925.284 370.943 925.284 366.23C925.284 361.376 924.911 357.666 924.164 355.1C923.464 352.486 922.064 350.573 919.964 349.36C917.864 348.146 914.714 347.54 910.514 347.54H905.544V384.57H910.864Z" fill="white"/>
<path d="M942.512 388L956.232 344.11H962.742L975.762 388H971.352L968.062 376.8H950.702L947.272 388H942.512ZM951.752 373.65H966.942L959.522 347.89L951.752 373.65Z" fill="white"/>
<path d="M1000.77 388.35C995.641 388.35 991.464 387.463 988.244 385.69L989.224 382.12C991.091 382.913 992.864 383.543 994.544 384.01C996.271 384.476 998.347 384.71 1000.77 384.71C1003.71 384.71 1006 383.986 1007.63 382.54C1009.31 381.093 1010.15 378.876 1010.15 375.89C1010.15 374.163 1009.85 372.81 1009.24 371.83C1008.64 370.803 1007.77 369.986 1006.65 369.38C1005.53 368.773 1003.9 368.12 1001.75 367.42L997.554 366.02C994.474 364.946 992.141 363.57 990.554 361.89C989.014 360.163 988.244 357.83 988.244 354.89C988.244 350.97 989.481 348.1 991.954 346.28C994.427 344.46 997.671 343.55 1001.68 343.55C1006.16 343.55 1010.08 344.25 1013.44 345.65L1012.67 349.15C1011.04 348.543 1009.38 348.076 1007.7 347.75C1006.07 347.376 1004.25 347.19 1002.24 347.19C995.851 347.19 992.654 349.71 992.654 354.75C992.654 356.663 993.074 358.133 993.914 359.16C994.754 360.14 996.434 361.073 998.954 361.96L1002.8 363.36C1005.7 364.386 1007.82 365.25 1009.17 365.95C1010.57 366.65 1011.81 367.793 1012.88 369.38C1013.96 370.966 1014.49 373.16 1014.49 375.96C1014.49 379.926 1013.26 382.983 1010.78 385.13C1008.31 387.276 1004.97 388.35 1000.77 388.35Z" fill="white"/>
<g filter="url(#filter0_i_239_31)">
<path d="M61.7207 231.49L14.813 233.342C10.4925 233.342 6.89214 231.799 4.01184 228.713C1.33728 225.42 0 222.128 0 218.836C0 215.337 0.411471 203.814 1.23441 184.266C2.26309 164.718 2.77743 143.936 2.77743 121.918C2.77743 99.901 2.26309 79.8385 1.23441 61.7308C0.411471 43.4173 0 33.9519 0 33.3346C0 29.0135 1.33728 25.2067 4.01184 21.9144C6.89214 18.4164 10.4925 16.6673 14.813 16.6673C19.1334 16.6673 22.6309 18.4164 25.3055 21.9144C28.1858 25.2067 29.6259 29.0135 29.6259 33.3346C29.6259 33.9519 29.1116 43.4173 28.0829 61.7308C27.26 79.8385 26.8485 98.2548 26.8485 116.98C26.8485 135.499 26.9514 150.417 27.1571 161.735C27.5686 173.052 28.0829 183.649 28.7001 193.526C29.3173 203.403 29.6259 209.267 29.6259 211.119L108.628 209.267C111.92 209.267 114.8 210.399 117.269 212.662C119.944 214.72 121.281 217.601 121.281 221.305C121.281 225.009 119.944 227.992 117.269 230.256C114.8 232.313 111.92 233.342 108.628 233.342L61.7207 231.49Z" fill="white"/>
<path d="M222.935 178.711L219.848 109.263C219.848 103.708 221.186 99.2837 223.86 95.9913C226.741 92.4933 230.135 90.7442 234.044 90.7442C237.953 90.7442 241.142 92.3904 243.611 95.6827C246.08 98.7692 247.314 103.09 247.314 108.646C247.314 113.996 246.697 121.61 245.463 131.487C242.994 151.24 241.759 168.937 241.759 184.575C241.759 190.748 243.714 196.715 247.623 202.477C251.737 208.033 253.795 213.074 253.795 217.601C253.795 222.128 252.252 225.935 249.166 229.021C246.08 231.902 242.582 233.342 238.673 233.342C228.387 233.342 223.243 225.214 223.243 208.959C213.574 225.214 201.435 233.342 186.828 233.342C175.101 233.342 165.74 229.124 158.745 220.688C151.956 212.251 147.224 201.962 144.549 189.822L132.822 136.734C131.588 130.766 128.811 125.519 124.49 120.992C120.375 116.26 118.318 111.527 118.318 106.794C118.318 102.062 119.964 98.2548 123.256 95.374C126.547 92.2875 130.456 90.7442 134.983 90.7442C145.269 90.7442 151.956 98.8721 155.042 115.128L166.769 179.637C170.678 200.213 180.45 210.502 196.086 210.502C203.698 210.502 209.973 207.518 214.911 201.551C219.848 195.378 222.523 187.764 222.935 178.711Z" fill="white"/>
<path d="M297.932 143.215L299.784 218.527C299.784 222.848 298.55 226.449 296.081 229.33C293.612 232.005 290.423 233.342 286.514 233.342C282.605 233.342 279.21 232.005 276.33 229.33C273.656 226.449 272.318 222.848 272.318 218.527L274.478 157.413C274.478 157.413 273.758 140.232 272.318 105.868C272.318 101.547 273.656 97.9461 276.33 95.0654C279.21 92.1846 282.605 90.7442 286.514 90.7442C290.423 90.7442 293.612 92.1846 296.081 95.0654C298.55 97.7404 299.784 101.136 299.784 105.251C299.784 109.366 299.681 112.453 299.475 114.511C310.997 98.6664 324.266 90.7442 339.285 90.7442C360.887 90.7442 374.775 105.251 380.947 134.264L392.673 187.353C393.908 192.086 396.377 197.23 400.08 202.786C403.989 208.136 405.943 212.971 405.943 217.292C405.943 227.992 400.8 233.342 390.513 233.342C380.227 233.342 373.54 225.214 370.454 208.959L358.727 144.45C354.818 123.873 344.223 113.585 326.941 113.585C318.094 113.585 311.202 116.568 306.265 122.536C301.327 128.503 298.55 135.396 297.932 143.215Z" fill="white"/>
<path d="M419.929 284.888C421.987 276.863 423.941 265.031 425.793 249.392C427.85 233.754 428.879 215.852 428.879 195.687C428.879 175.521 427.953 147.845 426.102 112.659H416.535C408.511 112.659 404.499 109.161 404.499 102.164C404.499 95.1683 408.511 91.6702 416.535 91.6702C420.65 91.6702 423.736 91.7731 425.793 91.9788C426.616 66.2577 436.285 44.549 454.802 26.8529C473.524 8.95096 492.245 0 510.967 0C518.374 0 524.443 1.3375 529.175 4.0125C534.113 6.68751 536.582 10.5971 536.582 15.7413C536.582 20.6798 535.141 24.5894 532.261 27.4702C529.587 30.1452 526.912 31.4827 524.237 31.4827C521.563 31.4827 516.934 30.351 510.35 28.0875C503.767 25.6183 497.286 24.3837 490.908 24.3837C478.153 24.3837 467.249 30.0423 458.196 41.3596C449.144 52.4712 444.618 65.8462 444.618 81.4846V93.2135H454.493L497.08 90.7442C505.104 90.7442 509.116 94.551 509.116 102.164C509.116 109.778 505.104 113.585 497.08 113.585L454.493 111.115C449.967 111.115 446.675 111.218 444.618 111.424C445.029 134.059 445.955 159.471 447.395 187.662C449.041 215.852 449.864 243.631 449.864 270.998C449.864 304.333 443.383 321 430.422 321C421.37 321 416.843 315.136 416.843 303.407C416.843 299.291 417.872 293.118 419.929 284.888Z" fill="white"/>
<path d="M614.472 190.131C615.913 193.835 618.896 198.876 623.422 205.255C628.154 211.428 630.52 216.469 630.52 220.379C630.52 224.288 629.491 227.478 627.434 229.947C625.376 232.211 622.599 233.342 619.102 233.342C610.666 233.342 603.157 224.597 596.573 207.107L594.105 200.316C583.612 222.334 567.873 233.342 546.888 233.342C536.396 233.342 527.652 230.05 520.657 223.465C513.868 216.675 510.473 208.238 510.473 198.156C510.473 182.517 515.822 169.039 526.521 157.722C537.219 146.405 551.209 140.335 568.491 139.512C564.376 132.31 559.747 126.96 554.603 123.462C549.666 119.758 545.14 117.597 541.025 116.98C536.91 116.363 533.001 116.054 529.298 116.054C525.8 115.848 523.023 115.025 520.966 113.585C518.908 112.144 517.88 109.366 517.88 105.251C517.88 100.93 519.526 97.4317 522.817 94.7567C526.315 92.0817 530.43 90.7442 535.161 90.7442C548.534 90.7442 561.701 97.4317 574.663 110.807C587.624 124.182 598.939 145.17 608.609 173.772L614.472 190.131ZM560.776 155.87C553.369 155.87 546.683 158.339 540.716 163.278C534.956 168.216 532.075 174.595 532.075 182.414C532.075 190.234 534.647 196.818 539.79 202.168C545.14 207.312 551.517 209.885 558.924 209.885C566.33 209.885 572.708 207.312 578.057 202.168C583.406 196.818 586.081 190.542 586.081 183.34C586.081 178.196 585.155 173.463 583.304 169.142C581.452 164.615 580.32 161.837 579.909 160.809C574.56 157.516 568.182 155.87 560.776 155.87Z" fill="white"/>
<path d="M670.016 158.957L672.485 214.823C672.485 220.379 671.045 224.906 668.165 228.404C665.49 231.696 662.198 233.342 658.289 233.342C654.38 233.342 651.191 231.799 648.723 228.713C646.254 225.42 645.019 220.996 645.019 215.44C645.019 209.885 645.534 201.963 646.562 191.674C648.62 171.097 649.648 153.71 649.648 139.512C649.648 133.338 647.694 127.474 643.785 121.918C640.082 116.157 638.23 111.013 638.23 106.486C638.23 101.959 639.773 98.2548 642.859 95.374C645.945 92.2875 649.443 90.7442 653.352 90.7442C663.638 90.7442 668.782 98.8721 668.782 115.128V127.165C674.954 116.054 682.36 107.206 691.001 100.621C699.642 94.0365 707.563 90.7442 714.764 90.7442C721.964 90.7442 727.416 92.5962 731.12 96.3C735.029 99.7981 736.983 104.531 736.983 110.498C736.983 116.465 735.543 121.507 732.663 125.622C729.782 129.532 726.696 131.487 723.405 131.487C720.113 131.487 717.541 130.663 715.69 129.017C714.044 127.165 712.809 125.313 711.986 123.462C711.163 121.404 709.62 119.552 707.357 117.906C705.094 116.054 702.214 115.128 698.716 115.128C692.75 115.128 686.784 119.038 680.817 126.857C674.851 134.676 671.251 145.376 670.016 158.957Z" fill="white"/>
<path d="M781.314 233.342C768.352 233.342 757.448 228.198 748.602 217.91C739.755 207.621 735.332 195.789 735.332 182.414C735.332 168.834 738.006 156.179 743.355 144.45C748.704 132.721 755.494 123.05 763.723 115.437C771.953 107.823 780.799 101.856 790.263 97.5346C799.933 93.0077 809.808 90.7442 819.889 90.7442C830.176 90.7442 839.64 94.551 848.28 102.164C848.075 86.7317 847.355 69.8587 846.12 51.5452C844.886 33.026 844.269 21.4 844.269 16.6673C844.269 11.9346 845.503 8.02501 847.972 4.93847C850.441 1.64616 853.63 0 857.539 0C861.448 0 864.739 1.74904 867.414 5.24712C870.294 8.53943 871.734 13.0664 871.734 18.8279C871.734 24.3837 870.809 37.5529 868.957 58.3356C867.311 78.9125 866.488 98.2548 866.488 116.363C866.488 134.47 867.208 150.212 868.648 163.587C870.088 176.756 871.631 185.707 873.277 190.439C878.009 202.991 880.375 211.428 880.375 215.749C880.375 227.478 875.849 233.342 866.797 233.342C855.893 233.342 849.515 221.716 847.663 198.464C839.434 209.37 829.559 217.91 818.037 224.083C806.516 230.256 794.275 233.342 781.314 233.342ZM769.278 128.709C760.226 137.763 755.7 148.874 755.7 162.043C755.7 175.213 760.226 186.427 769.278 195.687C778.536 204.74 789.646 209.267 802.607 209.267C815.774 209.267 826.781 204.74 835.628 195.687C844.474 186.427 848.898 174.801 848.898 160.809C848.898 146.816 844.886 135.705 836.862 127.474C828.838 119.243 817.832 115.128 803.842 115.128C790.057 115.128 778.536 119.655 769.278 128.709Z" fill="white"/>
<path d="M922.013 128.709C912.96 137.763 908.434 148.874 908.434 162.043C908.434 175.213 912.96 186.427 922.013 195.687C931.271 204.74 942.38 209.267 955.342 209.267C968.509 209.267 979.516 204.74 988.362 195.687C997.209 186.427 1001.63 175.213 1001.63 162.043C1001.63 148.874 997.209 137.763 988.362 128.709C979.516 119.655 968.509 115.128 955.342 115.128C942.38 115.128 931.271 119.655 922.013 128.709ZM934.357 233.342C921.19 233.342 910.183 228.198 901.336 217.91C892.489 207.621 888.066 194.761 888.066 179.328C888.066 163.689 892.901 148.668 902.57 134.264C912.24 119.655 923.556 108.749 936.517 101.547C949.478 94.3452 962.542 90.7442 975.709 90.7442C988.877 90.7442 999.883 95.8885 1008.73 106.177C1017.58 116.465 1022 129.429 1022 145.067C1022 160.5 1017.17 175.521 1007.5 190.131C997.826 204.535 986.511 215.337 973.549 222.539C960.588 229.741 947.524 233.342 934.357 233.342Z" fill="white"/>
</g>
<defs>
<filter id="filter0_i_239_31" x="0" y="0" width="1022" height="325" filterUnits="userSpaceOnUse" color-interpolation-filters="sRGB">
<feFlood flood-opacity="0" result="BackgroundImageFix"/>
<feBlend mode="normal" in="SourceGraphic" in2="BackgroundImageFix" result="shape"/>
<feColorMatrix in="SourceAlpha" type="matrix" values="0 0 0 0 0 0 0 0 0 0 0 0 0 0 0 0 0 0 127 0" result="hardAlpha"/>
<feOffset dy="4"/>
<feGaussianBlur stdDeviation="2"/>
<feComposite in2="hardAlpha" operator="arithmetic" k2="-1" k3="1"/>
<feColorMatrix type="matrix" values="0 0 0 0 0 0 0 0 0 0 0 0 0 0 0 0 0 0 0.25 0"/>
<feBlend mode="normal" in2="shape" result="effect1_innerShadow_239_31"/>
</filter>
</defs>
</svg>
