<svg width="1022" height="321" viewBox="0 0 1022 321" fill="none" xmlns="http://www.w3.org/2000/svg">
<g filter="url(#filter0_i_306_17)">
<path d="M61.7207 231.49L14.813 233.342C10.4925 233.342 6.89214 231.799 4.01184 228.713C1.33728 225.42 0 222.128 0 218.836C0 215.337 0.411471 203.814 1.23441 184.266C2.26309 164.718 2.77743 143.936 2.77743 121.918C2.77743 99.901 2.26309 79.8385 1.23441 61.7308C0.411471 43.4173 0 33.9519 0 33.3346C0 29.0135 1.33728 25.2067 4.01184 21.9144C6.89214 18.4164 10.4925 16.6673 14.813 16.6673C19.1334 16.6673 22.6309 18.4164 25.3055 21.9144C28.1858 25.2067 29.6259 29.0135 29.6259 33.3346C29.6259 33.9519 29.1116 43.4173 28.0829 61.7308C27.26 79.8385 26.8485 98.2548 26.8485 116.98C26.8485 135.499 26.9514 150.417 27.1571 161.735C27.5686 173.052 28.0829 183.649 28.7001 193.526C29.3173 203.403 29.6259 209.267 29.6259 211.119L108.628 209.267C111.92 209.267 114.8 210.399 117.269 212.662C119.944 214.72 121.281 217.601 121.281 221.305C121.281 225.009 119.944 227.992 117.269 230.256C114.8 232.313 111.92 233.342 108.628 233.342L61.7207 231.49Z" fill="#FED136"/>
<path d="M222.935 178.711L219.848 109.263C219.848 103.708 221.186 99.2837 223.86 95.9913C226.741 92.4933 230.135 90.7442 234.044 90.7442C237.953 90.7442 241.142 92.3904 243.611 95.6827C246.08 98.7692 247.314 103.09 247.314 108.646C247.314 113.996 246.697 121.61 245.463 131.487C242.994 151.24 241.759 168.937 241.759 184.575C241.759 190.748 243.714 196.715 247.623 202.477C251.737 208.033 253.795 213.074 253.795 217.601C253.795 222.128 252.252 225.935 249.166 229.021C246.08 231.902 242.582 233.342 238.673 233.342C228.387 233.342 223.243 225.214 223.243 208.959C213.574 225.214 201.435 233.342 186.828 233.342C175.101 233.342 165.74 229.124 158.745 220.688C151.956 212.251 147.224 201.962 144.549 189.822L132.822 136.734C131.588 130.766 128.811 125.519 124.49 120.992C120.375 116.26 118.318 111.527 118.318 106.794C118.318 102.062 119.964 98.2548 123.256 95.374C126.547 92.2875 130.456 90.7442 134.983 90.7442C145.269 90.7442 151.956 98.8721 155.042 115.128L166.769 179.637C170.678 200.213 180.45 210.502 196.086 210.502C203.698 210.502 209.973 207.518 214.911 201.551C219.848 195.378 222.523 187.764 222.935 178.711Z" fill="#FED136"/>
<path d="M297.932 143.215L299.784 218.527C299.784 222.848 298.55 226.449 296.081 229.33C293.612 232.005 290.423 233.342 286.514 233.342C282.605 233.342 279.21 232.005 276.33 229.33C273.656 226.449 272.318 222.848 272.318 218.527L274.478 157.413C274.478 157.413 273.758 140.232 272.318 105.868C272.318 101.547 273.656 97.9461 276.33 95.0654C279.21 92.1846 282.605 90.7442 286.514 90.7442C290.423 90.7442 293.612 92.1846 296.081 95.0654C298.55 97.7404 299.784 101.136 299.784 105.251C299.784 109.366 299.681 112.453 299.475 114.511C310.997 98.6664 324.266 90.7442 339.285 90.7442C360.887 90.7442 374.775 105.251 380.947 134.264L392.673 187.353C393.908 192.086 396.377 197.23 400.08 202.786C403.989 208.136 405.943 212.971 405.943 217.292C405.943 227.992 400.8 233.342 390.513 233.342C380.227 233.342 373.54 225.214 370.454 208.959L358.727 144.45C354.818 123.873 344.223 113.585 326.941 113.585C318.094 113.585 311.202 116.568 306.265 122.536C301.327 128.503 298.55 135.396 297.932 143.215Z" fill="#FED136"/>
<path d="M419.929 284.888C421.987 276.863 423.941 265.031 425.793 249.392C427.85 233.754 428.879 215.852 428.879 195.687C428.879 175.521 427.953 147.845 426.102 112.659H416.535C408.511 112.659 404.499 109.161 404.499 102.164C404.499 95.1683 408.511 91.6702 416.535 91.6702C420.65 91.6702 423.736 91.7731 425.793 91.9788C426.616 66.2577 436.285 44.549 454.802 26.8529C473.524 8.95096 492.245 0 510.967 0C518.374 0 524.443 1.3375 529.175 4.0125C534.113 6.68751 536.582 10.5971 536.582 15.7413C536.582 20.6798 535.141 24.5894 532.261 27.4702C529.587 30.1452 526.912 31.4827 524.237 31.4827C521.563 31.4827 516.934 30.351 510.35 28.0875C503.767 25.6183 497.286 24.3837 490.908 24.3837C478.153 24.3837 467.249 30.0423 458.196 41.3596C449.144 52.4712 444.618 65.8462 444.618 81.4846V93.2135H454.493L497.08 90.7442C505.104 90.7442 509.116 94.551 509.116 102.164C509.116 109.778 505.104 113.585 497.08 113.585L454.493 111.115C449.967 111.115 446.675 111.218 444.618 111.424C445.029 134.059 445.955 159.471 447.395 187.662C449.041 215.852 449.864 243.631 449.864 270.998C449.864 304.333 443.383 321 430.422 321C421.37 321 416.843 315.136 416.843 303.407C416.843 299.291 417.872 293.118 419.929 284.888Z" fill="#FED136"/>
<path d="M614.472 190.131C615.913 193.835 618.896 198.876 623.422 205.255C628.154 211.428 630.52 216.469 630.52 220.379C630.52 224.288 629.491 227.478 627.434 229.947C625.376 232.211 622.599 233.342 619.102 233.342C610.666 233.342 603.157 224.597 596.573 207.107L594.105 200.316C583.612 222.334 567.873 233.342 546.888 233.342C536.396 233.342 527.652 230.05 520.657 223.465C513.868 216.675 510.473 208.238 510.473 198.156C510.473 182.517 515.822 169.039 526.521 157.722C537.219 146.405 551.209 140.335 568.491 139.512C564.376 132.31 559.747 126.96 554.603 123.462C549.666 119.758 545.14 117.597 541.025 116.98C536.91 116.363 533.001 116.054 529.298 116.054C525.8 115.848 523.023 115.025 520.966 113.585C518.908 112.144 517.88 109.366 517.88 105.251C517.88 100.93 519.526 97.4317 522.817 94.7567C526.315 92.0817 530.43 90.7442 535.161 90.7442C548.534 90.7442 561.701 97.4317 574.663 110.807C587.624 124.182 598.939 145.17 608.609 173.772L614.472 190.131ZM560.776 155.87C553.369 155.87 546.683 158.339 540.716 163.278C534.956 168.216 532.075 174.595 532.075 182.414C532.075 190.234 534.647 196.818 539.79 202.168C545.14 207.312 551.517 209.885 558.924 209.885C566.33 209.885 572.708 207.312 578.057 202.168C583.406 196.818 586.081 190.542 586.081 183.34C586.081 178.196 585.155 173.463 583.304 169.142C581.452 164.615 580.32 161.837 579.909 160.809C574.56 157.516 568.182 155.87 560.776 155.87Z" fill="#FED136"/>
<path d="M670.016 158.957L672.485 214.823C672.485 220.379 671.045 224.906 668.165 228.404C665.49 231.696 662.198 233.342 658.289 233.342C654.38 233.342 651.191 231.799 648.723 228.713C646.254 225.42 645.019 220.996 645.019 215.44C645.019 209.885 645.534 201.963 646.562 191.674C648.62 171.097 649.648 153.71 649.648 139.512C649.648 133.338 647.694 127.474 643.785 121.918C640.082 116.157 638.23 111.013 638.23 106.486C638.23 101.959 639.773 98.2548 642.859 95.374C645.945 92.2875 649.443 90.7442 653.352 90.7442C663.638 90.7442 668.782 98.8721 668.782 115.128V127.165C674.954 116.054 682.36 107.206 691.001 100.621C699.642 94.0365 707.563 90.7442 714.764 90.7442C721.964 90.7442 727.416 92.5962 731.12 96.3C735.029 99.7981 736.983 104.531 736.983 110.498C736.983 116.465 735.543 121.507 732.663 125.622C729.782 129.532 726.696 131.487 723.405 131.487C720.113 131.487 717.541 130.663 715.69 129.017C714.044 127.165 712.809 125.313 711.986 123.462C711.163 121.404 709.62 119.552 707.357 117.906C705.094 116.054 702.214 115.128 698.716 115.128C692.75 115.128 686.784 119.038 680.817 126.857C674.851 134.676 671.251 145.376 670.016 158.957Z" fill="#FED136"/>
<path d="M781.314 233.342C768.352 233.342 757.448 228.198 748.602 217.91C739.755 207.621 735.332 195.789 735.332 182.414C735.332 168.834 738.006 156.179 743.355 144.45C748.704 132.721 755.494 123.05 763.723 115.437C771.953 107.823 780.799 101.856 790.263 97.5346C799.933 93.0077 809.808 90.7442 819.889 90.7442C830.176 90.7442 839.64 94.551 848.28 102.164C848.075 86.7317 847.355 69.8587 846.12 51.5452C844.886 33.026 844.269 21.4 844.269 16.6673C844.269 11.9346 845.503 8.02501 847.972 4.93847C850.441 1.64616 853.63 0 857.539 0C861.448 0 864.739 1.74904 867.414 5.24712C870.294 8.53943 871.734 13.0664 871.734 18.8279C871.734 24.3837 870.809 37.5529 868.957 58.3356C867.311 78.9125 866.488 98.2548 866.488 116.363C866.488 134.47 867.208 150.212 868.648 163.587C870.088 176.756 871.631 185.707 873.277 190.439C878.009 202.991 880.375 211.428 880.375 215.749C880.375 227.478 875.849 233.342 866.797 233.342C855.893 233.342 849.515 221.716 847.663 198.464C839.434 209.37 829.559 217.91 818.037 224.083C806.516 230.256 794.275 233.342 781.314 233.342ZM769.278 128.709C760.226 137.763 755.7 148.874 755.7 162.043C755.7 175.213 760.226 186.427 769.278 195.687C778.536 204.74 789.646 209.267 802.607 209.267C815.774 209.267 826.781 204.74 835.628 195.687C844.474 186.427 848.898 174.801 848.898 160.809C848.898 146.816 844.886 135.705 836.862 127.474C828.838 119.243 817.832 115.128 803.842 115.128C790.057 115.128 778.536 119.655 769.278 128.709Z" fill="#FED136"/>
<path d="M922.013 128.709C912.96 137.763 908.434 148.874 908.434 162.043C908.434 175.213 912.96 186.427 922.013 195.687C931.271 204.74 942.38 209.267 955.342 209.267C968.509 209.267 979.516 204.74 988.362 195.687C997.209 186.427 1001.63 175.213 1001.63 162.043C1001.63 148.874 997.209 137.763 988.362 128.709C979.516 119.655 968.509 115.128 955.342 115.128C942.38 115.128 931.271 119.655 922.013 128.709ZM934.357 233.342C921.19 233.342 910.183 228.198 901.336 217.91C892.489 207.621 888.066 194.761 888.066 179.328C888.066 163.689 892.901 148.668 902.57 134.264C912.24 119.655 923.556 108.749 936.517 101.547C949.478 94.3452 962.542 90.7442 975.709 90.7442C988.877 90.7442 999.883 95.8885 1008.73 106.177C1017.58 116.465 1022 129.429 1022 145.067C1022 160.5 1017.17 175.521 1007.5 190.131C997.826 204.535 986.511 215.337 973.549 222.539C960.588 229.741 947.524 233.342 934.357 233.342Z" fill="#FED136"/>
</g>
<defs>
<filter id="filter0_i_306_17" x="0" y="0" width="1022" height="325" filterUnits="userSpaceOnUse" color-interpolation-filters="sRGB">
<feFlood flood-opacity="0" result="BackgroundImageFix"/>
<feBlend mode="normal" in="SourceGraphic" in2="BackgroundImageFix" result="shape"/>
<feColorMatrix in="SourceAlpha" type="matrix" values="0 0 0 0 0 0 0 0 0 0 0 0 0 0 0 0 0 0 127 0" result="hardAlpha"/>
<feOffset dy="4"/>
<feGaussianBlur stdDeviation="2"/>
<feComposite in2="hardAlpha" operator="arithmetic" k2="-1" k3="1"/>
<feColorMatrix type="matrix" values="0 0 0 0 0 0 0 0 0 0 0 0 0 0 0 0 0 0 0.25 0"/>
<feBlend mode="normal" in2="shape" result="effect1_innerShadow_306_17"/>
</filter>
</defs>
</svg>
